<?xml version="1.0" encoding="iso-8859-1"?>
<!-- Generator: Adobe Illustrator 17.1.0, SVG Export Plug-In . SVG Version: 6.00 Build 0)  -->
<!DOCTYPE svg PUBLIC "-//W3C//DTD SVG 1.1//EN" "http://www.w3.org/Graphics/SVG/1.1/DTD/svg11.dtd">
<svg version="1.1" id="Capa_1" xmlns="http://www.w3.org/2000/svg" xmlns:xlink="http://www.w3.org/1999/xlink" x="0px" y="0px"
	 viewBox="0 0 511 511" style="enable-background:new 0 0 511 511;" xml:space="preserve">
<g>
	<path d="M458.803,157.791c-0.944-4.033-4.979-6.537-9.012-5.594c-27.335,6.397-59.285,24.989-82.222,41.629
		c-4.607-43.687-14.112-83.809-27.859-116.589C318.824,27.43,290.25,0,259.255,0c-26.973,0-51.814,20.329-71.839,58.789
		c-17.576,33.757-30.281,80.178-36.065,131.46c-26.817-17.949-57.042-30.717-90.228-38.071c-4.044-0.898-8.049,1.655-8.945,5.699
		c-0.896,4.044,1.655,8.049,5.7,8.945c6.131,1.359,12.141,2.937,18.053,4.683c-1.213,61.631,6.397,121.325,22.108,172.884
		c15.598,51.183,38.833,93.626,67.193,122.739C193.192,495.83,225.705,511,259.255,511h8c104.727,0,175.209-137.025,175.733-341.217
		c3.777-1.282,7.21-2.276,10.221-2.98C457.242,165.858,459.747,161.824,458.803,157.791z M165.382,200.224
		c1.576-16.281,3.862-32.083,6.786-47.151c0.723,3.387,3.73,5.928,7.332,5.928h8c4.142,0,7.5-3.358,7.5-7.5s-3.358-7.5-7.5-7.5h-8
		c-2.552,0-4.802,1.277-6.157,3.224c0.913-4.394,1.879-8.722,2.9-12.976c0.986,0.477,2.088,0.752,3.257,0.752h8
		c4.142,0,7.5-3.358,7.5-7.5s-3.358-7.5-7.5-7.5h-7.554c0.852-3.046,1.734-6.047,2.643-9h4.911c4.142,0,7.5-3.358,7.5-7.5
		c0-4.109-3.306-7.443-7.403-7.495c1.256-3.472,2.552-6.865,3.89-10.166c0.473-0.297,0.917-0.641,1.313-1.04
		c1.4-1.39,2.2-3.33,2.2-5.3c0-0.517-0.058-1.032-0.165-1.535c1.893-4.254,3.853-8.347,5.885-12.249
		c1.289-2.476,2.603-4.857,3.933-7.164c1.17,2.62,3.792,4.448,6.847,4.448h8c4.142,0,7.5-3.358,7.5-7.5s-3.358-7.5-7.5-7.5h-8
		c-0.075,0-0.147,0.009-0.221,0.011c2.253-3.279,4.55-6.328,6.885-9.139c0.44,0.081,0.887,0.127,1.336,0.127
		c1.97,0,3.91-0.8,5.3-2.2c1.4-1.39,2.2-3.33,2.2-5.3c0-0.599-0.082-1.192-0.224-1.771C237.24,20.076,248.257,15,259.255,15
		c8.6,0,17.208,3.146,25.549,9.121C284.379,24.046,283.945,24,283.5,24h-8c-4.142,0-7.5,3.358-7.5,7.5s3.358,7.5,7.5,7.5h8
		c4.142,0,7.5-3.358,7.5-7.5c0-1.031-0.209-2.013-0.585-2.907c5.796,5.12,11.427,11.626,16.793,19.421
		C303.202,48.169,300,51.457,300,55.5c0,4.142,3.358,7.5,7.5,7.5h8c0.271,0,0.538-0.016,0.802-0.044
		c3.343,6.164,6.547,12.859,9.576,20.082c2.365,5.64,4.598,11.513,6.698,17.592c-0.375,0.906-0.576,1.884-0.576,2.87
		c0,1.97,0.8,3.91,2.2,5.3c0.427,0.43,0.91,0.795,1.425,1.106c1.041,3.329,2.046,6.71,3.01,10.147
		c-3.734,0.43-6.635,3.597-6.635,7.446c0,4.142,3.358,7.5,7.5,7.5h3.004c0.707,2.966,1.382,5.97,2.035,9H339.5
		c-4.142,0-7.5,3.358-7.5,7.5s3.358,7.5,7.5,7.5h7.999c0.545,3.03,1.069,6.083,1.562,9.165c-0.504-0.106-1.025-0.165-1.561-0.165h-8
		c-4.142,0-7.5,3.358-7.5,7.5s3.358,7.5,7.5,7.5h8c1.297,0,2.517-0.33,3.581-0.909c0.513,3.908,0.985,7.85,1.414,11.826
		c-1.327-1.188-3.074-1.917-4.995-1.917h-8c-4.142,0-7.5,3.358-7.5,7.5s3.358,7.5,7.5,7.5h8c2.451,0,4.621-1.181,5.989-2.999
		c0.523,5.86,0.956,11.782,1.299,17.757c-0.786-3.301-3.747-5.758-7.288-5.758h-8c-4.142,0-7.5,3.358-7.5,7.5s3.358,7.5,7.5,7.5h8
		c3.831,0,6.986-2.875,7.439-6.584c0.539,10.227,0.816,20.603,0.816,31.084c0,12.661-0.421,25.16-1.224,37.411
		c-1.055-2.864-3.801-4.911-7.031-4.911h-8c-4.142,0-7.5,3.358-7.5,7.5s3.358,7.5,7.5,7.5h8c2.846,0,5.321-1.585,6.592-3.921
		c-0.388,5.066-0.842,10.085-1.361,15.052c-1.351-1.317-3.195-2.131-5.231-2.131h-8c-4.142,0-7.5,3.358-7.5,7.5s3.358,7.5,7.5,7.5h8
		c1.42,0,2.743-0.402,3.875-1.088c-0.448,3.532-0.932,7.03-1.445,10.498c-0.763-0.261-1.578-0.41-2.43-0.41h-8
		c-4.142,0-7.5,3.358-7.5,7.5s3.358,7.5,7.5,7.5h8c0.017,0,0.034-0.002,0.051-0.002c-0.541,3.031-1.107,6.032-1.698,9.002H339.5
		c-4.142,0-7.5,3.358-7.5,7.5s3.358,7.5,7.5,7.5h3.104c-0.719,3.059-1.464,6.08-2.235,9.057c-0.288-0.034-0.578-0.057-0.869-0.057
		c-1.97,0-3.91,0.8-5.3,2.2c-1.4,1.39-2.2,3.33-2.2,5.3s0.8,3.91,2.2,5.3c0.629,0.634,1.375,1.137,2.181,1.506
		c-4.157,13.796-8.9,26.517-14.146,37.911c-1.218-2.494-3.772-4.217-6.735-4.217h-8c-4.142,0-7.5,3.358-7.5,7.5s3.358,7.5,7.5,7.5h8
		c0.512,0,1.012-0.052,1.495-0.15c-1.878,3.547-3.812,6.924-5.795,10.139c-1.123-0.637-2.403-0.99-3.7-0.99
		c-1.97,0-3.91,0.8-5.3,2.2c-1.4,1.39-2.2,3.33-2.2,5.3s0.8,3.91,2.2,5.3c0.167,0.169,0.344,0.328,0.526,0.479
		c-3.923,5.049-8.005,9.461-12.227,13.18c-0.16-4.32-0.412-9.263-0.8-14.747c0.837-1.235,1.302-2.714,1.302-4.211
		c0-1.899-0.75-3.766-2.057-5.143c-0.362-3.996-0.792-8.202-1.306-12.607c0.418-0.276,0.809-0.592,1.163-0.95
		c1.4-1.39,2.2-3.33,2.2-5.3s-0.8-3.91-2.2-5.3c-0.815-0.821-1.82-1.428-2.908-1.796c-0.446-3.088-0.932-6.247-1.462-9.471
		c1.639-0.209,3.199-0.956,4.369-2.134c1.4-1.39,2.2-3.33,2.2-5.3s-0.8-3.91-2.2-5.3c-1.39-1.4-3.33-2.2-5.3-2.2
		c-0.58,0-1.155,0.077-1.717,0.211c-0.593-3.027-1.228-6.102-1.901-9.211h3.618c4.142,0,7.5-3.358,7.5-7.5s-3.358-7.5-7.5-7.5h-7.12
		c-0.76-3.025-1.561-6.079-2.402-9.155c0.492,0.102,1.001,0.155,1.522,0.155h8c4.142,0,7.5-3.358,7.5-7.5s-3.358-7.5-7.5-7.5h-8
		c-2.025,0-3.859,0.806-5.208,2.11c-3.751-12.259-8.186-24.798-13.422-37.387c1.355-1.394,2.131-3.288,2.131-5.223
		c0-1.97-0.8-3.91-2.2-5.3c-1.39-1.4-3.33-2.2-5.3-2.2c-0.064,0-0.126,0.008-0.19,0.01c-1.236-2.688-2.508-5.375-3.822-8.059
		c-0.157-0.32-0.321-0.632-0.479-0.951h4.491c4.142,0,7.5-3.358,7.5-7.5s-3.358-7.5-7.5-7.5h-8c-1.381,0-2.67,0.38-3.782,1.031
		c-6.64-12.046-13.862-23.396-21.631-34.031h1.413c4.142,0,7.5-3.358,7.5-7.5s-3.358-7.5-7.5-7.5h-8
		c-1.513,0-2.919,0.452-4.097,1.223c-4.21-5.093-8.57-9.981-13.058-14.686c0.423-0.953,0.655-1.989,0.655-3.037
		c0-1.97-0.8-3.91-2.2-5.3c-1.39-1.4-3.33-2.2-5.3-2.2c-1.061,0-2.11,0.239-3.073,0.672c-2.296-2.167-4.613-4.303-6.974-6.373
		c-3.937-3.453-7.969-6.77-12.089-9.956C165.369,200.303,165.378,200.264,165.382,200.224z M175.977,456.662
		c-26.698-27.406-48.687-67.741-63.589-116.645c-14.866-48.784-22.264-105.18-21.539-163.608
		c28.53,10.356,54.244,25.462,76.715,45.167c26.609,23.335,48.967,53.27,66.454,88.973c38.523,78.657,41.704,160.672,41.737,184.565
		c-0.34-0.057-0.685-0.101-1.04-0.111c-35.11-1.005-98.616-60.42-126.532-169.362c-1.028-4.013-5.112-6.431-9.127-5.404
		c-4.012,1.028-6.432,5.114-5.403,9.127c16.695,65.154,43.772,107.257,63.547,131.104c10.225,12.331,20.859,22.611,31.439,30.558
		C210.083,484.945,192.245,473.361,175.977,456.662z M382.539,406.905c-20.567,41.282-46.57,68.76-76.467,81.292
		c38.887-40.468,64.682-130.578,64.682-232.697c0-14.941-0.548-29.688-1.615-44.114c21.208-16.501,41.919-28.223,58.818-35.691
		C427.095,269.092,411.438,348.901,382.539,406.905z"/>
	<path d="M243.5,111h8c4.142,0,7.5-3.358,7.5-7.5s-3.358-7.5-7.5-7.5h-8c-4.142,0-7.5,3.358-7.5,7.5S239.358,111,243.5,111z"/>
	<path d="M243.5,135h8c4.142,0,7.5-3.358,7.5-7.5s-3.358-7.5-7.5-7.5h-8c-4.142,0-7.5,3.358-7.5,7.5S239.358,135,243.5,135z"/>
	<path d="M243.5,159h8c4.142,0,7.5-3.358,7.5-7.5s-3.358-7.5-7.5-7.5h-8c-4.142,0-7.5,3.358-7.5,7.5S239.358,159,243.5,159z"/>
	<path d="M243.5,183h8c4.142,0,7.5-3.358,7.5-7.5s-3.358-7.5-7.5-7.5h-8c-4.142,0-7.5,3.358-7.5,7.5S239.358,183,243.5,183z"/>
	<path d="M243.5,207h8c4.142,0,7.5-3.358,7.5-7.5s-3.358-7.5-7.5-7.5h-8c-4.142,0-7.5,3.358-7.5,7.5S239.358,207,243.5,207z"/>
	<path d="M243.5,87h8c4.142,0,7.5-3.358,7.5-7.5s-3.358-7.5-7.5-7.5h-8c-4.142,0-7.5,3.358-7.5,7.5S239.358,87,243.5,87z"/>
	<path d="M243.5,63h8c4.142,0,7.5-3.358,7.5-7.5s-3.358-7.5-7.5-7.5h-8c-4.142,0-7.5,3.358-7.5,7.5S239.358,63,243.5,63z"/>
	<path d="M243.5,39h8c4.142,0,7.5-3.358,7.5-7.5s-3.358-7.5-7.5-7.5h-8c-4.142,0-7.5,3.358-7.5,7.5S239.358,39,243.5,39z"/>
	<path d="M243.5,279h8c4.142,0,7.5-3.358,7.5-7.5s-3.358-7.5-7.5-7.5h-8c-4.142,0-7.5,3.358-7.5,7.5S239.358,279,243.5,279z"/>
	<path d="M243.5,255h8c4.142,0,7.5-3.358,7.5-7.5s-3.358-7.5-7.5-7.5h-8c-4.142,0-7.5,3.358-7.5,7.5S239.358,255,243.5,255z"/>
	<path d="M243.5,231h8c4.142,0,7.5-3.358,7.5-7.5s-3.358-7.5-7.5-7.5h-8c-4.142,0-7.5,3.358-7.5,7.5S239.358,231,243.5,231z"/>
	<path d="M275.5,111h8c4.142,0,7.5-3.358,7.5-7.5s-3.358-7.5-7.5-7.5h-8c-4.142,0-7.5,3.358-7.5,7.5S271.358,111,275.5,111z"/>
	<path d="M275.5,135h8c4.142,0,7.5-3.358,7.5-7.5s-3.358-7.5-7.5-7.5h-8c-4.142,0-7.5,3.358-7.5,7.5S271.358,135,275.5,135z"/>
	<path d="M275.5,159h8c4.142,0,7.5-3.358,7.5-7.5s-3.358-7.5-7.5-7.5h-8c-4.142,0-7.5,3.358-7.5,7.5S271.358,159,275.5,159z"/>
	<path d="M275.5,183h8c4.142,0,7.5-3.358,7.5-7.5s-3.358-7.5-7.5-7.5h-8c-4.142,0-7.5,3.358-7.5,7.5S271.358,183,275.5,183z"/>
	<path d="M275.5,207h8c4.142,0,7.5-3.358,7.5-7.5s-3.358-7.5-7.5-7.5h-8c-4.142,0-7.5,3.358-7.5,7.5S271.358,207,275.5,207z"/>
	<path d="M275.5,87h8c4.142,0,7.5-3.358,7.5-7.5s-3.358-7.5-7.5-7.5h-8c-4.142,0-7.5,3.358-7.5,7.5S271.358,87,275.5,87z"/>
	<path d="M275.5,63h8c4.142,0,7.5-3.358,7.5-7.5s-3.358-7.5-7.5-7.5h-8c-4.142,0-7.5,3.358-7.5,7.5S271.358,63,275.5,63z"/>
	<path d="M275.5,303h8c4.142,0,7.5-3.358,7.5-7.5s-3.358-7.5-7.5-7.5h-8c-4.142,0-7.5,3.358-7.5,7.5S271.358,303,275.5,303z"/>
	<path d="M275.5,327h8c4.142,0,7.5-3.358,7.5-7.5s-3.358-7.5-7.5-7.5h-8c-4.142,0-7.5,3.358-7.5,7.5S271.358,327,275.5,327z"/>
	<path d="M275.5,351h8c4.142,0,7.5-3.358,7.5-7.5s-3.358-7.5-7.5-7.5h-8c-4.142,0-7.5,3.358-7.5,7.5S271.358,351,275.5,351z"/>
	<path d="M275.5,279h8c4.142,0,7.5-3.358,7.5-7.5s-3.358-7.5-7.5-7.5h-8c-4.142,0-7.5,3.358-7.5,7.5S271.358,279,275.5,279z"/>
	<path d="M275.5,255h8c4.142,0,7.5-3.358,7.5-7.5s-3.358-7.5-7.5-7.5h-8c-4.142,0-7.5,3.358-7.5,7.5S271.358,255,275.5,255z"/>
	<path d="M275.5,231h8c4.142,0,7.5-3.358,7.5-7.5s-3.358-7.5-7.5-7.5h-8c-4.142,0-7.5,3.358-7.5,7.5S271.358,231,275.5,231z"/>
	<path d="M211.5,111h8c4.142,0,7.5-3.358,7.5-7.5s-3.358-7.5-7.5-7.5h-8c-4.142,0-7.5,3.358-7.5,7.5S207.358,111,211.5,111z"/>
	<path d="M211.5,135h8c4.142,0,7.5-3.358,7.5-7.5s-3.358-7.5-7.5-7.5h-8c-4.142,0-7.5,3.358-7.5,7.5S207.358,135,211.5,135z"/>
	<path d="M211.5,159h8c4.142,0,7.5-3.358,7.5-7.5s-3.358-7.5-7.5-7.5h-8c-4.142,0-7.5,3.358-7.5,7.5S207.358,159,211.5,159z"/>
	<path d="M211.5,183h8c4.142,0,7.5-3.358,7.5-7.5s-3.358-7.5-7.5-7.5h-8c-4.142,0-7.5,3.358-7.5,7.5S207.358,183,211.5,183z"/>
	<path d="M211.5,207h8c4.142,0,7.5-3.358,7.5-7.5s-3.358-7.5-7.5-7.5h-8c-4.142,0-7.5,3.358-7.5,7.5S207.358,207,211.5,207z"/>
	<path d="M211.5,87h8c4.142,0,7.5-3.358,7.5-7.5s-3.358-7.5-7.5-7.5h-8c-4.142,0-7.5,3.358-7.5,7.5S207.358,87,211.5,87z"/>
	<path d="M211.5,231h8c4.142,0,7.5-3.358,7.5-7.5s-3.358-7.5-7.5-7.5h-8c-4.142,0-7.5,3.358-7.5,7.5S207.358,231,211.5,231z"/>
	<path d="M307.5,111h8c4.142,0,7.5-3.358,7.5-7.5s-3.358-7.5-7.5-7.5h-8c-4.142,0-7.5,3.358-7.5,7.5S303.358,111,307.5,111z"/>
	<path d="M307.5,135h8c4.142,0,7.5-3.358,7.5-7.5s-3.358-7.5-7.5-7.5h-8c-4.142,0-7.5,3.358-7.5,7.5S303.358,135,307.5,135z"/>
	<path d="M307.5,159h8c4.142,0,7.5-3.358,7.5-7.5s-3.358-7.5-7.5-7.5h-8c-4.142,0-7.5,3.358-7.5,7.5S303.358,159,307.5,159z"/>
	<path d="M307.5,183h8c4.142,0,7.5-3.358,7.5-7.5s-3.358-7.5-7.5-7.5h-8c-4.142,0-7.5,3.358-7.5,7.5S303.358,183,307.5,183z"/>
	<path d="M307.5,207h8c4.142,0,7.5-3.358,7.5-7.5s-3.358-7.5-7.5-7.5h-8c-4.142,0-7.5,3.358-7.5,7.5S303.358,207,307.5,207z"/>
	<path d="M307.5,87h8c4.142,0,7.5-3.358,7.5-7.5s-3.358-7.5-7.5-7.5h-8c-4.142,0-7.5,3.358-7.5,7.5S303.358,87,307.5,87z"/>
	<path d="M307.5,303h8c4.142,0,7.5-3.358,7.5-7.5s-3.358-7.5-7.5-7.5h-8c-4.142,0-7.5,3.358-7.5,7.5S303.358,303,307.5,303z"/>
	<path d="M307.5,327h8c4.142,0,7.5-3.358,7.5-7.5s-3.358-7.5-7.5-7.5h-8c-4.142,0-7.5,3.358-7.5,7.5S303.358,327,307.5,327z"/>
	<path d="M307.5,351h8c4.142,0,7.5-3.358,7.5-7.5s-3.358-7.5-7.5-7.5h-8c-4.142,0-7.5,3.358-7.5,7.5S303.358,351,307.5,351z"/>
	<path d="M307.5,375h8c4.142,0,7.5-3.358,7.5-7.5s-3.358-7.5-7.5-7.5h-8c-4.142,0-7.5,3.358-7.5,7.5S303.358,375,307.5,375z"/>
	<path d="M307.5,399h8c4.142,0,7.5-3.358,7.5-7.5s-3.358-7.5-7.5-7.5h-8c-4.142,0-7.5,3.358-7.5,7.5S303.358,399,307.5,399z"/>
	<path d="M307.5,279h8c4.142,0,7.5-3.358,7.5-7.5s-3.358-7.5-7.5-7.5h-8c-4.142,0-7.5,3.358-7.5,7.5S303.358,279,307.5,279z"/>
	<path d="M307.5,255h8c4.142,0,7.5-3.358,7.5-7.5s-3.358-7.5-7.5-7.5h-8c-4.142,0-7.5,3.358-7.5,7.5S303.358,255,307.5,255z"/>
	<path d="M307.5,231h8c4.142,0,7.5-3.358,7.5-7.5s-3.358-7.5-7.5-7.5h-8c-4.142,0-7.5,3.358-7.5,7.5S303.358,231,307.5,231z"/>
	<path d="M339.5,279h8c4.142,0,7.5-3.358,7.5-7.5s-3.358-7.5-7.5-7.5h-8c-4.142,0-7.5,3.358-7.5,7.5S335.358,279,339.5,279z"/>
	<path d="M339.5,255h8c4.142,0,7.5-3.358,7.5-7.5s-3.358-7.5-7.5-7.5h-8c-4.142,0-7.5,3.358-7.5,7.5S335.358,255,339.5,255z"/>
	<path d="M179.5,183h8c4.142,0,7.5-3.358,7.5-7.5s-3.358-7.5-7.5-7.5h-8c-4.142,0-7.5,3.358-7.5,7.5S175.358,183,179.5,183z"/>
	<path d="M187.5,207c4.142,0,7.5-3.358,7.5-7.5s-3.358-7.5-7.5-7.5h-8c-4.142,0-7.5,3.358-7.5,7.5s3.358,7.5,7.5,7.5H187.5z"/>
	<path d="M307.5,423h8c4.142,0,7.5-3.358,7.5-7.5s-3.358-7.5-7.5-7.5h-8c-4.142,0-7.5,3.358-7.5,7.5S303.358,423,307.5,423z"/>
	<path d="M135.318,302.889c4.08-0.719,6.804-4.608,6.085-8.688c-0.912-5.181-1.745-10.474-2.475-15.732
		c-0.569-4.103-4.359-6.965-8.459-6.398c-4.103,0.569-6.967,4.356-6.398,8.459c0.754,5.438,1.616,10.913,2.56,16.272
		c0.641,3.64,3.806,6.201,7.377,6.201C134.44,303.003,134.878,302.966,135.318,302.889z"/>
</g>
<g>
</g>
<g>
</g>
<g>
</g>
<g>
</g>
<g>
</g>
<g>
</g>
<g>
</g>
<g>
</g>
<g>
</g>
<g>
</g>
<g>
</g>
<g>
</g>
<g>
</g>
<g>
</g>
<g>
</g>
</svg>
