<?xml version="1.0" encoding="iso-8859-1"?>
<!-- Generator: Adobe Illustrator 18.1.1, SVG Export Plug-In . SVG Version: 6.00 Build 0)  -->
<svg version="1.1" id="Capa_1" xmlns="http://www.w3.org/2000/svg" xmlns:xlink="http://www.w3.org/1999/xlink" x="0px" y="0px"
	 viewBox="0 0 15.333 15.333" style="enable-background:new 0 0 15.333 15.333;" xml:space="preserve">
<g>
	<path style="fill:#030104;" d="M0.001,5.507c0-0.754,1.598-1.365,3.569-1.365s3.569,0.611,3.569,1.365S5.541,6.872,3.57,6.872
		S0.001,6.261,0.001,5.507z M11.764,4.274c1.971,0,3.569-0.611,3.569-1.365s-1.598-1.365-3.569-1.365S8.195,2.156,8.195,2.91
		S9.793,4.274,11.764,4.274z M11.763,5.502c1.971,0,3.569-0.611,3.569-1.365c0-0.106-0.035-0.209-0.096-0.309
		c-0.365,0.604-1.779,1.056-3.472,1.056S8.657,4.432,8.289,3.828C8.228,3.927,8.194,4.031,8.194,4.137
		C8.194,4.891,9.792,5.502,11.763,5.502z M11.763,6.931c1.971,0,3.569-0.611,3.569-1.365c0-0.106-0.035-0.209-0.096-0.309
		c-0.365,0.605-1.779,1.056-3.472,1.056S8.657,5.862,8.289,5.257c-0.061,0.1-0.095,0.202-0.095,0.309
		C8.194,6.32,9.792,6.931,11.763,6.931z M3.57,8.099c1.971,0,3.569-0.612,3.569-1.365c0-0.106-0.035-0.209-0.096-0.309
		C6.676,7.03,5.263,7.481,3.569,7.481S0.462,7.03,0.095,6.425C0.035,6.525,0,6.628,0,6.734C0,7.488,1.598,8.099,3.57,8.099z
		 M3.57,8.91c-1.694,0-3.107-0.451-3.474-1.056c-0.06,0.099-0.095,0.203-0.095,0.309C0,8.918,1.598,9.528,3.57,9.528
		c0.482,0,0.942-0.036,1.362-0.104c0.527-0.603,1.292-0.99,2.147-1.017c0.038-0.08,0.061-0.16,0.061-0.244
		c0-0.106-0.035-0.21-0.096-0.309C6.677,8.458,5.264,8.91,3.57,8.91z M0.096,9.334c-0.06,0.1-0.095,0.202-0.095,0.309
		c0,0.754,1.598,1.365,3.569,1.365c0.224,0,0.442-0.01,0.655-0.024c0.029-0.219,0.083-0.429,0.157-0.631
		C4.121,10.377,3.85,10.39,3.57,10.39C1.876,10.389,0.462,9.938,0.096,9.334z M11.763,8.41c1.971,0,3.569-0.61,3.569-1.364
		c0-0.106-0.035-0.209-0.096-0.309c-0.365,0.605-1.779,1.056-3.472,1.056S8.657,7.341,8.289,6.736
		c-0.061,0.1-0.095,0.203-0.095,0.309C8.194,7.799,9.792,8.41,11.763,8.41z M11.764,9.208c-1.693,0-3.107-0.451-3.475-1.057
		c-0.061,0.1-0.095,0.203-0.095,0.309c0,0.046,0.007,0.091,0.018,0.136c0.501,0.188,0.939,0.506,1.271,0.915
		c0.619,0.196,1.414,0.314,2.281,0.314c1.972,0,3.569-0.611,3.569-1.365c0-0.105-0.035-0.209-0.096-0.309
		C14.871,8.757,13.457,9.208,11.764,9.208z M11.764,10.686c-0.636,0-1.231-0.063-1.747-0.175c0.062,0.205,0.102,0.42,0.118,0.641
		c0.488,0.097,1.041,0.151,1.629,0.151c1.972,0,3.569-0.61,3.569-1.364c0-0.106-0.035-0.21-0.096-0.31
		C14.871,10.235,13.457,10.686,11.764,10.686z M7.159,9.014c-1.318,0-2.387,1.069-2.387,2.387s1.069,2.387,2.387,2.387
		s2.387-1.069,2.387-2.387S8.477,9.014,7.159,9.014z"/>
</g>
<g>
</g>
<g>
</g>
<g>
</g>
<g>
</g>
<g>
</g>
<g>
</g>
<g>
</g>
<g>
</g>
<g>
</g>
<g>
</g>
<g>
</g>
<g>
</g>
<g>
</g>
<g>
</g>
<g>
</g>
</svg>
